# xmcd
#
# Track frame offsets:
# 150
# 21820
# 38028
# 51996
# 65082
# 77257
# 94697
# 110879
# 132599
# 148992
# 163078
# 174700
# 186275
# 200200
# 215347
# 225140
# 235945
# 254198
#
# Disc length: 3546 seconds
#
#
# Revision: 0
# Processed by: cddbd v1.5.2PL0 Copyright (c) Steve Scherf et al.
# Submitted via: FreeRIP 2.951 
#
DISCID=110dd812
DTITLE=Willie Nelson - Half Nelson
DYEAR=1900
DGENRE=Country
TTITLE0=Pancho and Lefty
TTITLE1=Slow Movin' Outlaw
TTITLE2=Are There Any More Real Cowboys
TTITLE3=I Told A Lie To My Heart
TTITLE4=Texas On a Saturday Night
TTITLE5=Seven Spanish Angels
TTITLE6=To All The Girls I've Loved Before
TTITLE7=They All Went To Mexico
TTITLE8=Honky Tonk Women
TTITLE9=Half A Man
TTITLE10=Mammas Don't Let Your Babies
TTITLE11=Pick Up The Tempo
TTITLE12=If You can Touch Her At All
TTITLE13=It's not Supposed To Be That Way
TTITLE14=The Wurlitzer Prize
TTITLE15=I Can Get Off On You
TTITLE16=A Couple More Years
TTITLE17=Lookin' For A Feeling
EXTD=
EXTT0=
EXTT1=
EXTT2=
EXTT3=
EXTT4=
EXTT5=
EXTT6=
EXTT7=
EXTT8=
EXTT9=
EXTT10=
EXTT11=
EXTT12=
EXTT13=
EXTT14=
EXTT15=
EXTT16=
EXTT17=
PLAYORDER=
